<?xml version="1.0" standalone="no"?><!-- Generator: Gravit.io --><svg xmlns="http://www.w3.org/2000/svg" xmlns:xlink="http://www.w3.org/1999/xlink" style="isolation:isolate" viewBox="0 0 500 228" width="500" height="228"><defs><clipPath id="_clipPath_gt2HLeU5fOct6uei3UdEsC7eyUod7j30"><rect width="500" height="228"/></clipPath></defs><g clip-path="url(#_clipPath_gt2HLeU5fOct6uei3UdEsC7eyUod7j30)"><g id="Group"><path d=" M 303.016 158.198 L 236.011 158.198 L 236.011 158.198 Q 235.139 158.198 235.139 156.018 L 235.139 156.018 L 235.139 154.711 L 235.139 154.711 Q 235.139 153.839 236.011 153.839 L 236.011 153.839 L 236.011 153.839 Q 236.664 153.839 238.081 153.622 L 238.081 153.622 L 238.081 153.622 Q 239.497 153.404 241.022 153.186 L 241.022 153.186 L 241.022 153.186 Q 242.548 152.968 243.855 152.695 L 243.855 152.695 L 243.855 152.695 Q 245.163 152.423 245.707 152.314 L 245.707 152.314 L 245.707 152.314 Q 256.82 149.808 256.82 139.676 L 256.82 139.676 L 256.82 24.623 L 256.82 24.623 Q 256.82 15.253 249.303 11.331 L 249.303 11.331 L 249.303 11.331 Q 244.836 8.934 239.715 8.934 L 239.715 8.934 L 235.575 8.934 L 235.575 8.934 Q 234.703 8.934 234.703 8.062 L 234.703 8.062 L 234.703 5.448 L 234.703 5.448 Q 234.703 4.576 236.011 4.576 L 236.011 4.576 L 295.825 2.942 L 306.829 2.942 L 306.829 2.942 Q 326.113 4.249 339.133 16.942 L 339.133 16.942 L 339.133 16.942 Q 352.153 29.635 352.153 48.211 L 352.153 48.211 L 352.153 48.211 Q 352.153 66.787 336.682 77.138 L 336.682 77.138 L 336.682 77.138 Q 331.888 80.297 326.331 82.803 L 326.331 82.803 L 359.344 136.734 L 359.344 136.734 Q 367.951 150.898 382.441 156.672 L 382.441 156.672 L 382.441 156.672 Q 383.64 156.999 383.64 158.198 L 383.64 158.198 L 383.64 158.198 Q 383.64 160.921 380.044 160.921 L 380.044 160.921 L 380.044 160.921 Q 355.53 160.921 341.04 142.291 L 341.04 142.291 L 341.04 142.291 Q 337.88 138.15 334.721 133.03 L 334.721 133.03 L 306.502 88.795 L 280.572 87.597 L 279.7 87.597 L 279.7 87.597 Q 278.066 87.597 278.066 89.122 L 278.066 89.122 L 278.066 139.349 L 278.066 139.349 Q 278.066 145.341 281.443 148.283 L 281.443 148.283 L 281.443 148.283 Q 284.821 151.225 293.101 152.314 L 293.101 152.314 L 293.101 152.314 Q 295.28 152.641 298.44 153.24 L 298.44 153.24 L 298.44 153.24 Q 301.599 153.839 302.743 153.839 L 302.743 153.839 L 302.743 153.839 Q 303.887 153.839 303.887 154.711 L 303.887 154.711 L 303.887 157.326 L 303.887 157.326 Q 303.887 158.198 303.016 158.198 L 303.016 158.198 Z  M 286.891 8.662 L 286.891 8.662 L 286.891 8.662 Q 285.584 8.716 284.113 8.771 L 284.113 8.771 L 284.113 8.771 Q 282.642 8.825 280.354 8.88 L 280.354 8.88 L 280.354 8.88 Q 278.066 8.934 278.066 10.677 L 278.066 10.677 L 278.066 76.702 L 278.284 79.97 L 278.284 79.97 Q 278.611 82.258 280.354 82.367 L 280.354 82.367 L 291.467 83.021 L 291.467 83.021 Q 322.082 83.021 328.401 61.231 L 328.401 61.231 L 328.401 61.231 Q 330.472 54.367 330.472 45.542 L 330.472 45.542 L 330.472 45.542 Q 330.472 28.327 319.74 18.413 L 319.74 18.413 L 319.74 18.413 Q 309.008 8.498 292.339 8.498 L 292.339 8.498 L 292.339 8.498 Q 290.813 8.498 289.506 8.553 L 289.506 8.553 L 289.506 8.553 Q 288.198 8.607 286.891 8.662 Z " fill-rule="evenodd" fill="rgb(255,255,255)"/><defs><filter id="nMGY5ry9jSt9J1iccpZOwr1SvXtPjrqk" x="-200%" y="-200%" width="400%" height="400%"><feOffset xmlns="http://www.w3.org/2000/svg" in="SourceAlpha" result="offOut" dx="4" dy="1"/><feGaussianBlur xmlns="http://www.w3.org/2000/svg" in="offOut" result="blurOut" stdDeviation="2"/><feComponentTransfer xmlns="http://www.w3.org/2000/svg" in="blurOut" result="opacOut"><feFuncA xmlns="http://www.w3.org/2000/svg" type="table" tableValues="0 0.5"/></feComponentTransfer><feBlend xmlns="http://www.w3.org/2000/svg" in="SourceGraphic" in2="opacOut" mode="normal"/></filter></defs><g filter="url(#nMGY5ry9jSt9J1iccpZOwr1SvXtPjrqk)"><path d=" M 266.768 120.936 L 251.732 154.057 L 251.732 154.057 Q 251.188 154.929 249.063 154.439 L 249.063 154.439 L 249.063 154.439 Q 246.938 153.948 244.106 153.948 L 244.106 153.948 L 244.106 153.948 Q 241.273 153.948 236.098 155.092 L 236.098 155.092 L 236.098 155.092 Q 230.923 156.236 219.81 158.688 L 219.81 158.688 L 219.81 158.688 Q 208.697 161.139 199.545 161.139 L 199.545 161.139 L 199.545 161.139 Q 178.844 161.139 159.396 151.388 L 159.396 151.388 L 159.396 151.388 Q 139.948 141.637 128.29 123.714 L 128.29 123.714 L 128.29 123.714 Q 116.633 105.792 116.633 82.149 L 116.633 82.149 L 116.633 82.149 Q 116.633 58.507 128.29 39.331 L 128.29 39.331 L 128.29 39.331 Q 145.287 11.222 179.498 2.724 L 179.498 2.724 L 179.498 2.724 Q 190.393 0 201.288 0 L 201.288 0 L 201.288 0 Q 216.214 0 236.697 5.012 L 236.697 5.012 L 236.697 5.012 Q 242.907 6.537 247.211 8.171 L 247.211 8.171 L 247.211 8.171 Q 251.514 9.806 252.495 9.806 L 252.495 9.806 L 255.764 8.934 L 259.141 8.934 L 259.141 8.934 Q 260.448 8.934 260.448 10.786 L 260.448 10.786 L 260.448 44.67 L 260.448 44.67 Q 260.448 45.76 258.487 45.76 L 258.487 45.76 L 258.487 45.76 Q 256.526 45.76 256.199 45.269 L 256.199 45.269 L 256.199 45.269 Q 255.872 44.779 255.546 44.071 L 255.546 44.071 L 255.546 44.071 Q 255.219 43.363 254.837 42.6 L 254.837 42.6 L 254.837 42.6 Q 254.456 41.837 254.075 41.184 L 254.075 41.184 L 254.075 41.184 Q 253.693 40.53 253.585 40.203 L 253.585 40.203 L 253.585 40.203 Q 237.242 7.409 204.012 7.409 L 204.012 7.409 L 204.012 7.409 Q 174.05 7.409 157.162 26.475 L 157.162 26.475 L 157.162 26.475 Q 140.275 45.542 140.275 76.974 L 140.275 76.974 L 140.275 76.974 Q 140.275 108.407 158.851 130.96 L 158.851 130.96 L 158.851 130.96 Q 177.427 153.513 209.35 153.513 L 209.35 153.513 L 209.35 153.513 Q 226.782 153.513 241.11 143.162 L 241.11 143.162 L 241.11 143.162 Q 255.437 132.812 263.608 117.777 L 263.608 117.777 L 263.608 117.777 Q 263.826 117.123 264.915 117.123 L 264.915 117.123 L 266.332 117.123 L 266.332 117.123 Q 267.421 117.123 267.421 118.43 L 267.421 118.43 L 267.421 118.43 Q 267.421 119.738 266.768 120.936 L 266.768 120.936 Z " fill="rgb(255,255,255)"/></g></g><path d=" M 367.036 183.487 L 367.036 182.877 L 367.036 182.877 Q 367.036 182.703 367.21 182.703 L 367.21 182.703 L 367.689 182.703 L 374.684 182.55 L 374.684 182.55 Q 375.948 182.507 377.43 182.507 L 377.43 182.507 L 380.153 182.507 L 380.153 182.507 Q 383.945 182.507 385.852 182.79 L 385.852 182.79 L 385.852 182.79 Q 387.758 183.073 389.599 183.455 L 389.599 183.455 L 389.599 183.455 Q 391.441 183.836 393.522 185.187 L 393.522 185.187 L 393.522 185.187 Q 395.603 186.538 397.128 188.456 L 397.128 188.456 L 397.128 188.456 Q 400.353 192.552 400.353 197.302 L 400.353 197.302 L 400.353 197.302 Q 400.353 202.053 397.869 205.822 L 397.869 205.822 L 397.869 205.822 Q 394.295 211.292 387.519 212.97 L 387.519 212.97 L 387.519 212.97 Q 385.361 213.493 383.095 213.493 L 383.095 213.493 L 367.21 213.493 L 367.21 213.493 Q 367.036 213.493 367.036 213.318 L 367.036 213.318 L 367.036 212.708 L 367.036 212.708 Q 367.036 212.534 367.21 212.534 L 367.21 212.534 L 367.689 212.534 L 367.689 212.534 Q 371.655 212.534 371.655 210.006 L 371.655 210.006 L 371.655 186.124 L 371.655 186.124 Q 371.655 184.904 370.718 184.283 L 370.718 184.283 L 370.718 184.283 Q 369.781 183.662 368.605 183.662 L 368.605 183.662 L 367.21 183.662 L 367.21 183.662 Q 367.036 183.662 367.036 183.487 L 367.036 183.487 Z  M 382.376 183.531 L 376.449 183.531 L 376.449 183.531 Q 375.904 183.531 375.904 184.119 L 375.904 184.119 L 375.904 210.769 L 375.904 210.769 Q 375.904 212.381 378.933 212.447 L 378.933 212.447 L 378.933 212.447 Q 379.827 212.468 380.807 212.468 L 380.807 212.468 L 380.807 212.468 Q 387.758 212.468 391.735 208.568 L 391.735 208.568 L 391.735 208.568 Q 395.712 204.667 395.712 198.185 L 395.712 198.185 L 395.712 198.185 Q 395.712 191.702 392.04 187.617 L 392.04 187.617 L 392.04 187.617 Q 388.368 183.531 382.376 183.531 L 382.376 183.531 Z  M 419.986 202.009 L 407.348 202.009 L 407.348 202.009 Q 406.977 202.009 406.977 203.6 L 406.977 203.6 L 406.977 203.6 Q 406.977 206.977 408.982 209.265 L 408.982 209.265 L 408.982 209.265 Q 410.987 211.553 413.961 211.553 L 413.961 211.553 L 413.961 211.553 Q 416.935 211.553 419.681 208.982 L 419.681 208.982 L 419.681 208.982 Q 419.725 208.938 419.79 208.938 L 419.79 208.938 L 419.899 208.938 L 419.899 208.938 Q 420.03 208.938 420.149 209.145 L 420.149 209.145 L 420.149 209.145 Q 420.269 209.352 420.378 209.418 L 420.378 209.418 L 420.378 209.418 Q 417.851 212.49 414.43 213.667 L 414.43 213.667 L 414.43 213.667 Q 413.253 214.081 411.771 214.081 L 411.771 214.081 L 411.771 214.081 Q 410.289 214.081 408.764 213.264 L 408.764 213.264 L 408.764 213.264 Q 407.239 212.447 406.149 211.117 L 406.149 211.117 L 406.149 211.117 Q 403.839 208.35 403.839 204.221 L 403.839 204.221 L 403.839 204.221 Q 403.839 200.092 406.356 196.692 L 406.356 196.692 L 406.356 196.692 Q 408.873 193.293 413.275 193.293 L 413.275 193.293 L 413.275 193.293 Q 416.434 193.293 418.439 196.115 L 418.439 196.115 L 418.439 196.115 Q 420.444 198.937 420.444 201.072 L 420.444 201.072 L 420.444 201.072 Q 420.444 202.009 419.986 202.009 L 419.986 202.009 Z  M 407.587 199.656 L 407.587 199.917 L 407.587 199.917 Q 407.587 200.331 407.98 200.331 L 407.98 200.331 L 416.195 200.331 L 416.195 200.331 Q 416.761 200.331 416.761 199.656 L 416.761 199.656 L 416.761 199.656 Q 416.761 198.087 415.356 196.442 L 415.356 196.442 L 415.356 196.442 Q 413.95 194.796 412.272 194.796 L 412.272 194.796 L 412.272 194.796 Q 410.638 194.796 409.298 196.278 L 409.298 196.278 L 409.298 196.278 Q 407.958 197.76 407.587 199.656 L 407.587 199.656 Z  M 434.673 196.583 L 434.673 198.588 L 434.673 198.588 Q 434.673 199.067 434.313 199.067 L 434.313 199.067 L 434.313 199.067 Q 433.954 199.067 433.758 198.544 L 433.758 198.544 L 433.758 198.544 Q 433.235 197.106 432.2 195.995 L 432.2 195.995 L 432.2 195.995 Q 431.164 194.884 429.639 194.884 L 429.639 194.884 L 429.639 194.884 Q 427.634 194.884 426.937 196.888 L 426.937 196.888 L 426.937 196.888 Q 426.719 197.564 426.719 198.283 L 426.719 198.283 L 426.719 198.283 Q 426.719 199.002 427.634 199.885 L 427.634 199.885 L 427.634 199.885 Q 428.55 200.767 430.642 201.987 L 430.642 201.987 L 430.642 201.987 Q 432.733 203.208 433.692 204.057 L 433.692 204.057 L 433.692 204.057 Q 435.871 205.997 435.871 208.546 L 435.871 208.546 L 435.871 208.546 Q 435.871 211.096 433.997 212.588 L 433.997 212.588 L 433.997 212.588 Q 432.123 214.081 429.639 214.081 L 429.639 214.081 L 429.639 214.081 Q 428.31 214.081 427.231 213.721 L 427.231 213.721 L 427.231 213.721 Q 426.153 213.362 425.989 213.362 L 425.989 213.362 L 425.989 213.362 Q 425.826 213.362 425.466 213.721 L 425.466 213.721 L 425.466 213.721 Q 425.107 214.081 424.889 214.081 L 424.889 214.081 L 424.518 214.081 L 424.518 214.081 Q 424.388 214.081 424.192 211.728 L 424.192 211.728 L 424.192 211.728 Q 423.995 209.374 423.995 208.938 L 423.995 208.938 L 423.995 208.938 Q 423.995 208.503 424.072 208.459 L 424.072 208.459 L 424.072 208.459 Q 424.148 208.415 424.322 208.415 L 424.322 208.415 L 424.322 208.415 Q 424.497 208.415 424.616 208.524 L 424.616 208.524 L 424.616 208.524 Q 424.736 208.633 424.823 208.797 L 424.823 208.797 L 424.823 208.797 Q 424.911 208.96 424.965 209.134 L 424.965 209.134 L 424.965 209.134 Q 425.02 209.309 425.238 209.788 L 425.238 209.788 L 425.238 209.788 Q 426.719 212.948 429.813 212.948 L 429.813 212.948 L 429.813 212.948 Q 431.186 212.948 432.014 211.935 L 432.014 211.935 L 432.014 211.935 Q 432.842 210.921 432.842 209.679 L 432.842 209.679 L 432.842 209.679 Q 432.842 208.437 432.189 207.587 L 432.189 207.587 L 432.189 207.587 Q 431.535 206.738 430.565 206.04 L 430.565 206.04 L 430.565 206.04 Q 429.596 205.343 428.462 204.689 L 428.462 204.689 L 428.462 204.689 Q 424.061 202.118 424.061 199.002 L 424.061 199.002 L 424.061 199.002 Q 424.061 196.67 426.066 194.982 L 426.066 194.982 L 426.066 194.982 Q 428.07 193.293 430.184 193.293 L 430.184 193.293 L 430.184 193.293 Q 432.298 193.293 433.311 193.751 L 433.311 193.751 L 433.311 193.751 Q 434.324 194.208 434.498 194.524 L 434.498 194.524 L 434.498 194.524 Q 434.673 194.84 434.673 196.583 L 434.673 196.583 Z  M 448.749 213.493 L 439.031 213.493 L 439.031 213.493 Q 438.813 213.449 438.813 213.187 L 438.813 213.187 L 438.813 213.187 Q 438.813 212.795 439.837 212.665 L 439.837 212.665 L 439.837 212.665 Q 442.19 212.316 442.19 210.18 L 442.19 210.18 L 442.19 198.653 L 442.19 198.653 Q 442.19 197.738 441.188 197.39 L 441.188 197.39 L 441.188 197.39 Q 440.752 197.237 440.251 197.139 L 440.251 197.139 L 440.251 197.139 Q 439.75 197.041 439.456 196.954 L 439.456 196.954 L 439.456 196.954 Q 439.162 196.867 439.085 196.79 L 439.085 196.79 L 439.085 196.79 Q 439.009 196.714 439.009 196.463 L 439.009 196.463 L 439.009 196.463 Q 439.009 196.213 439.336 196.039 L 439.336 196.039 L 444.892 193.424 L 444.892 193.424 Q 445.154 193.293 445.219 193.293 L 445.219 193.293 L 445.219 193.293 Q 445.59 193.293 445.59 193.816 L 445.59 193.816 L 445.59 210.18 L 445.59 210.18 Q 445.59 212.316 447.943 212.665 L 447.943 212.665 L 447.943 212.665 Q 448.967 212.795 448.967 213.122 L 448.967 213.122 L 448.967 213.122 Q 448.967 213.449 448.749 213.493 L 448.749 213.493 Z  M 443.574 187.17 L 443.574 187.17 L 443.574 187.17 Q 442.67 187.17 441.983 186.603 L 441.983 186.603 L 441.983 186.603 Q 441.297 186.037 441.297 185.024 L 441.297 185.024 L 441.297 185.024 Q 441.297 184.01 441.951 183.422 L 441.951 183.422 L 441.951 183.422 Q 442.604 182.834 443.509 182.834 L 443.509 182.834 L 443.509 182.834 Q 444.413 182.834 445.034 183.531 L 445.034 183.531 L 445.034 183.531 Q 445.655 184.228 445.655 185.034 L 445.655 185.034 L 445.655 185.034 Q 445.655 185.841 445.067 186.505 L 445.067 186.505 L 445.067 186.505 Q 444.478 187.17 443.574 187.17 Z  M 467.903 195.385 L 467.903 195.385 L 467.903 195.385 Q 467.903 195.385 473.743 195.123 L 473.743 195.123 L 473.743 195.123 Q 474.244 195.123 474.396 195.232 L 474.396 195.232 L 474.396 195.232 Q 474.549 195.341 474.723 195.984 L 474.723 195.984 L 474.723 195.984 Q 474.898 196.627 474.898 197.193 L 474.898 197.193 L 474.898 197.193 Q 474.898 197.76 474.789 197.847 L 474.789 197.847 L 474.789 197.847 Q 474.68 197.934 474.353 197.934 L 474.353 197.934 L 469.515 197.934 L 469.515 197.934 Q 469.646 198.174 469.799 198.435 L 469.799 198.435 L 469.799 198.435 Q 469.951 198.697 470.191 199.307 L 470.191 199.307 L 470.191 199.307 Q 470.431 199.917 470.431 201.192 L 470.431 201.192 L 470.431 201.192 Q 470.431 202.467 469.81 203.85 L 469.81 203.85 L 469.81 203.85 Q 469.189 205.234 467.99 206.302 L 467.99 206.302 L 467.99 206.302 Q 465.332 208.699 461.104 208.699 L 461.104 208.699 L 461.104 208.699 Q 459.993 208.699 458.664 208.285 L 458.664 208.285 L 458.664 208.285 Q 458.337 208.633 457.792 208.927 L 457.792 208.927 L 457.792 208.927 Q 457.247 209.222 456.724 209.527 L 456.724 209.527 L 456.724 209.527 Q 455.417 210.268 455.417 211.008 L 455.417 211.008 L 455.417 211.008 Q 455.417 212.861 461.562 212.904 L 461.562 212.904 L 461.562 212.904 Q 467.707 212.948 469.635 213.307 L 469.635 213.307 L 469.635 213.307 Q 471.564 213.667 472.631 214.735 L 472.631 214.735 L 472.631 214.735 Q 474.309 216.412 474.309 218.57 L 474.309 218.57 L 474.309 218.57 Q 474.309 220.422 472.719 222.383 L 472.719 222.383 L 472.719 222.383 Q 469.951 225.848 464.264 227.003 L 464.264 227.003 L 464.264 227.003 Q 462.237 227.417 459.971 227.417 L 459.971 227.417 L 459.971 227.417 Q 455.853 227.417 453.717 225.924 L 453.717 225.924 L 453.717 225.924 Q 451.582 224.431 451.582 222.318 L 451.582 222.318 L 451.582 222.318 Q 451.582 221.163 452.127 220.411 L 452.127 220.411 L 452.127 220.411 Q 452.671 219.659 453.51 218.995 L 453.51 218.995 L 453.51 218.995 Q 454.349 218.33 455.352 217.6 L 455.352 217.6 L 455.352 217.6 Q 456.354 216.87 457.269 215.737 L 457.269 215.737 L 457.269 215.737 Q 455.177 215.563 453.685 214.408 L 453.685 214.408 L 453.685 214.408 Q 452.192 213.253 452.192 212.142 L 452.192 212.142 L 452.192 212.142 Q 452.192 211.03 452.78 210.496 L 452.78 210.496 L 452.78 210.496 Q 453.369 209.963 454.219 209.581 L 454.219 209.581 L 454.219 209.581 Q 455.068 209.2 456.005 208.873 L 456.005 208.873 L 456.005 208.873 Q 456.942 208.546 457.64 208.023 L 457.64 208.023 L 457.64 208.023 Q 455.199 207.064 453.87 205.376 L 453.87 205.376 L 453.87 205.376 Q 452.541 203.687 452.541 201.682 L 452.541 201.682 L 452.541 201.682 Q 452.541 197.956 455.254 195.603 L 455.254 195.603 L 455.254 195.603 Q 457.967 193.249 461.802 193.249 L 461.802 193.249 L 461.802 193.249 Q 465.637 193.249 467.903 195.385 Z  M 456.06 218.112 L 456.06 218.112 L 456.06 218.112 Q 455.548 218.613 455.221 219.18 L 455.221 219.18 L 455.221 219.18 Q 454.894 219.746 454.894 220.607 L 454.894 220.607 L 454.894 220.607 Q 454.894 221.468 455.515 222.416 L 455.515 222.416 L 455.515 222.416 Q 456.136 223.364 457.204 224.126 L 457.204 224.126 L 457.204 224.126 Q 459.557 225.869 462.869 225.869 L 462.869 225.869 L 462.869 225.869 Q 466.181 225.869 468.873 223.941 L 468.873 223.941 L 468.873 223.941 Q 471.564 222.013 471.564 219.714 L 471.564 219.714 L 471.564 219.714 Q 471.564 217.415 469.341 216.63 L 469.341 216.63 L 469.341 216.63 Q 468.295 216.282 463.959 216.195 L 463.959 216.195 L 463.959 216.195 Q 459.623 216.107 458.337 215.955 L 458.337 215.955 L 458.337 215.955 Q 457.77 216.609 457.171 217.11 L 457.171 217.11 L 457.171 217.11 Q 456.572 217.611 456.06 218.112 Z  M 466.857 201.181 L 466.857 201.181 L 466.857 201.181 Q 466.857 198.109 465.321 196.18 L 465.321 196.18 L 465.321 196.18 Q 463.785 194.252 461.257 194.252 L 461.257 194.252 L 461.257 194.252 Q 457.988 194.252 456.637 197.324 L 456.637 197.324 L 456.637 197.324 Q 456.114 198.501 456.114 200.026 L 456.114 200.026 L 456.114 200.026 Q 456.114 203.142 457.4 205.212 L 457.4 205.212 L 457.4 205.212 Q 458.969 207.696 461.518 207.696 L 461.518 207.696 L 461.518 207.696 Q 464.068 207.696 465.462 205.975 L 465.462 205.975 L 465.462 205.975 Q 466.857 204.253 466.857 201.181 Z  M 492.591 206.629 L 492.591 206.629 L 492.548 202.031 L 492.548 202.031 Q 492.548 199.22 492.068 198.087 L 492.068 198.087 L 492.068 198.087 Q 491.589 196.954 490.848 196.376 L 490.848 196.376 L 490.848 196.376 Q 490.107 195.799 488.854 195.799 L 488.854 195.799 L 488.854 195.799 Q 487.601 195.799 483.548 197.76 L 483.548 197.76 L 483.548 197.76 Q 483.004 198.087 482.982 198.37 L 482.982 198.37 L 482.982 210.093 L 482.982 210.093 Q 482.982 212.294 485.335 212.621 L 485.335 212.621 L 485.335 212.621 Q 486.359 212.773 486.359 213.111 L 486.359 213.111 L 486.359 213.111 Q 486.359 213.449 486.141 213.493 L 486.141 213.493 L 476.423 213.493 L 476.423 213.493 Q 476.205 213.449 476.205 213.187 L 476.205 213.187 L 476.205 213.187 Q 476.205 212.773 477.229 212.621 L 477.229 212.621 L 477.229 212.621 Q 479.582 212.294 479.582 210.093 L 479.582 210.093 L 479.582 197.586 L 479.582 197.586 Q 479.582 196.67 478.58 196.322 L 478.58 196.322 L 478.58 196.322 Q 478.144 196.169 477.643 196.071 L 477.643 196.071 L 477.643 196.071 Q 477.142 195.973 476.848 195.886 L 476.848 195.886 L 476.848 195.886 Q 476.554 195.799 476.477 195.723 L 476.477 195.723 L 476.477 195.723 Q 476.401 195.646 476.401 195.396 L 476.401 195.396 L 476.401 195.396 Q 476.401 195.145 476.728 194.971 L 476.728 194.971 L 482.284 192.356 L 482.284 192.356 Q 482.546 192.225 482.611 192.225 L 482.611 192.225 L 482.611 192.225 Q 482.982 192.225 482.982 192.748 L 482.982 192.748 L 482.982 196.147 L 482.982 196.147 Q 483.047 196.365 483.156 196.365 L 483.156 196.365 L 483.156 196.365 Q 483.287 196.365 484.093 195.973 L 484.093 195.973 L 484.093 195.973 Q 485.967 195.036 487.863 194.165 L 487.863 194.165 L 487.863 194.165 Q 489.759 193.293 491.001 193.293 L 491.001 193.293 L 491.001 193.293 Q 496.034 193.293 496.034 202.467 L 496.034 202.467 L 495.838 208.829 L 495.838 210.093 L 495.838 210.093 Q 495.838 211.793 497.538 212.316 L 497.538 212.316 L 497.538 212.316 Q 498.257 212.556 498.921 212.654 L 498.921 212.654 L 498.921 212.654 Q 499.586 212.752 499.793 212.839 L 499.793 212.839 L 499.793 212.839 Q 500 212.926 500 213.187 L 500 213.187 L 500 213.187 Q 500 213.449 499.782 213.493 L 499.782 213.493 L 489.279 213.493 L 489.279 213.493 Q 489.061 213.449 489.061 213.187 L 489.061 213.187 L 489.061 213.187 Q 489.061 212.773 490.085 212.621 L 490.085 212.621 L 490.085 212.621 Q 492.417 212.294 492.417 209.919 L 492.417 209.919 L 492.417 209.919 Q 492.591 208.829 492.591 206.629 Z  M 272.989 183.64 L 272.597 183.64 L 272.597 183.64 Q 269.982 183.64 269.982 185.645 L 269.982 185.645 L 269.982 185.645 Q 269.982 186.015 270.123 186.429 L 270.123 186.429 L 270.123 186.429 Q 270.265 186.843 270.374 187.301 L 270.374 187.301 L 278.72 207.391 L 278.72 207.391 Q 278.829 207.609 279.068 207.609 L 279.068 207.609 L 279.068 207.609 Q 279.308 207.609 279.46 207.369 L 279.46 207.369 L 284.276 196.039 L 280.027 185.775 L 280.027 185.775 Q 279.635 184.795 276.758 183.901 L 276.758 183.901 L 276.758 183.901 Q 275.909 183.64 275.658 183.64 L 275.658 183.64 L 275.658 183.64 Q 275.407 183.64 275.407 183.466 L 275.407 183.466 L 275.407 182.943 L 275.407 182.943 Q 275.407 182.768 275.582 182.768 L 275.582 182.768 L 295.542 182.768 L 295.542 182.768 Q 295.716 182.768 295.716 182.943 L 295.716 182.943 L 295.716 183.466 L 295.716 183.466 Q 295.716 183.64 295.542 183.64 L 295.542 183.64 L 294.735 183.64 L 294.735 183.64 Q 292.644 183.64 291.554 185.688 L 291.554 185.688 L 291.554 185.688 Q 291.184 186.385 290.791 187.322 L 290.791 187.322 L 287.959 193.968 L 293.537 207.391 L 293.537 207.391 Q 293.646 207.609 293.886 207.609 L 293.886 207.609 L 293.886 207.609 Q 294.125 207.609 294.278 207.369 L 294.278 207.369 L 303.495 185.688 L 303.495 185.688 Q 303.757 185.078 303.757 184.599 L 303.757 184.599 L 303.757 184.599 Q 303.757 183.64 301.251 183.64 L 301.251 183.64 L 299.9 183.64 L 299.9 183.64 Q 299.725 183.64 299.725 183.466 L 299.725 183.466 L 299.725 182.943 L 299.725 182.943 Q 299.725 182.768 299.9 182.768 L 299.9 182.768 L 309.596 182.768 L 309.596 182.768 Q 309.771 182.768 309.771 182.943 L 309.771 182.943 L 309.771 183.466 L 309.771 183.466 Q 309.771 183.64 309.596 183.64 L 309.596 183.64 L 308.572 183.64 L 308.572 183.64 Q 307.614 183.64 307.123 184.304 L 307.123 184.304 L 307.123 184.304 Q 306.633 184.969 305.74 187.017 L 305.74 187.017 L 294.539 213.318 L 294.539 213.318 Q 294.3 213.841 294.038 213.961 L 294.038 213.961 L 294.038 213.961 Q 293.777 214.081 293.276 214.081 L 293.276 214.081 L 292.251 214.081 L 292.251 214.081 Q 291.728 214.081 291.554 213.601 L 291.554 213.601 L 285.671 199.351 L 279.722 213.318 L 279.722 213.318 Q 279.482 213.841 279.221 213.961 L 279.221 213.961 L 279.221 213.961 Q 278.959 214.081 278.458 214.081 L 278.458 214.081 L 277.434 214.081 L 277.434 214.081 Q 276.911 214.081 276.758 213.58 L 276.758 213.58 L 265.21 185.775 L 265.21 185.775 Q 264.861 184.925 263.052 184.283 L 263.052 184.283 L 263.052 184.283 Q 261.244 183.64 260.819 183.64 L 260.819 183.64 L 260.819 183.64 Q 260.394 183.64 260.394 183.466 L 260.394 183.466 L 260.394 182.943 L 260.394 182.943 Q 260.394 182.768 260.568 182.768 L 260.568 182.768 L 272.989 182.768 L 272.989 182.768 Q 273.163 182.768 273.163 182.943 L 273.163 182.943 L 273.163 183.466 L 273.163 183.466 Q 273.163 183.64 272.989 183.64 L 272.989 183.64 Z  M 288.939 184.664 L 288.939 184.664 L 288.939 184.664 Q 288.939 183.749 287.065 183.662 L 287.065 183.662 L 287.065 183.662 Q 285.17 183.771 284.886 184.991 L 284.886 184.991 L 284.886 184.991 Q 284.799 185.296 284.799 185.655 L 284.799 185.655 L 284.799 185.655 Q 284.799 186.015 284.941 186.429 L 284.941 186.429 L 284.941 186.429 Q 285.082 186.843 285.191 187.301 L 285.191 187.301 L 286.564 190.635 L 288.678 185.688 L 288.678 185.688 Q 288.939 185.078 288.939 184.664 Z  M 327.53 202.009 L 314.891 202.009 L 314.891 202.009 Q 314.521 202.009 314.521 203.6 L 314.521 203.6 L 314.521 203.6 Q 314.521 206.977 316.526 209.265 L 316.526 209.265 L 316.526 209.265 Q 318.53 211.553 321.505 211.553 L 321.505 211.553 L 321.505 211.553 Q 324.479 211.553 327.225 208.982 L 327.225 208.982 L 327.225 208.982 Q 327.268 208.938 327.334 208.938 L 327.334 208.938 L 327.443 208.938 L 327.443 208.938 Q 327.573 208.938 327.693 209.145 L 327.693 209.145 L 327.693 209.145 Q 327.813 209.352 327.922 209.418 L 327.922 209.418 L 327.922 209.418 Q 325.394 212.49 321.973 213.667 L 321.973 213.667 L 321.973 213.667 Q 320.797 214.081 319.315 214.081 L 319.315 214.081 L 319.315 214.081 Q 317.833 214.081 316.308 213.264 L 316.308 213.264 L 316.308 213.264 Q 314.783 212.447 313.693 211.117 L 313.693 211.117 L 313.693 211.117 Q 311.383 208.35 311.383 204.221 L 311.383 204.221 L 311.383 204.221 Q 311.383 200.092 313.9 196.692 L 313.9 196.692 L 313.9 196.692 Q 316.417 193.293 320.818 193.293 L 320.818 193.293 L 320.818 193.293 Q 323.978 193.293 325.983 196.115 L 325.983 196.115 L 325.983 196.115 Q 327.987 198.937 327.987 201.072 L 327.987 201.072 L 327.987 201.072 Q 327.987 202.009 327.53 202.009 L 327.53 202.009 Z  M 315.131 199.656 L 315.131 199.917 L 315.131 199.917 Q 315.131 200.331 315.523 200.331 L 315.523 200.331 L 323.738 200.331 L 323.738 200.331 Q 324.305 200.331 324.305 199.656 L 324.305 199.656 L 324.305 199.656 Q 324.305 198.087 322.899 196.442 L 322.899 196.442 L 322.899 196.442 Q 321.494 194.796 319.816 194.796 L 319.816 194.796 L 319.816 194.796 Q 318.182 194.796 316.842 196.278 L 316.842 196.278 L 316.842 196.278 Q 315.502 197.76 315.131 199.656 L 315.131 199.656 Z  M 336.965 178.17 L 336.965 195.254 L 336.965 195.254 Q 336.965 195.93 337.281 195.93 L 337.281 195.93 L 337.281 195.93 Q 337.597 195.93 340.059 194.513 L 340.059 194.513 L 340.059 194.513 Q 342.936 193.293 344.439 193.293 L 344.439 193.293 L 344.439 193.293 Q 345.943 193.293 347.315 194.165 L 347.315 194.165 L 347.315 194.165 Q 348.688 195.036 349.647 196.453 L 349.647 196.453 L 349.647 196.453 Q 351.673 199.372 351.673 203.534 L 351.673 203.534 L 351.673 203.534 Q 351.673 207.696 348.786 210.889 L 348.786 210.889 L 348.786 210.889 Q 345.899 214.081 341.171 214.081 L 341.171 214.081 L 341.171 214.081 Q 338.098 214.081 335.505 213.34 L 335.505 213.34 L 335.505 213.34 Q 334.742 213.122 334.209 212.991 L 334.209 212.991 L 334.209 212.991 Q 333.675 212.861 333.62 212.719 L 333.62 212.719 L 333.62 212.719 Q 333.566 212.577 333.566 212.381 L 333.566 212.381 L 333.566 183.008 L 333.566 183.008 Q 333.566 182.093 332.563 181.744 L 332.563 181.744 L 332.563 181.744 Q 332.128 181.592 331.626 181.494 L 331.626 181.494 L 331.626 181.494 Q 331.125 181.395 330.831 181.308 L 330.831 181.308 L 330.831 181.308 Q 330.537 181.221 330.461 181.145 L 330.461 181.145 L 330.461 181.145 Q 330.384 181.069 330.384 180.818 L 330.384 180.818 L 330.384 180.818 Q 330.384 180.567 330.711 180.393 L 330.711 180.393 L 336.268 177.778 L 336.268 177.778 Q 336.529 177.648 336.595 177.648 L 336.595 177.648 L 336.595 177.648 Q 336.965 177.648 336.965 178.17 L 336.965 178.17 Z  M 341.585 195.951 L 341.585 195.951 L 341.585 195.951 Q 339.645 195.951 337.227 197.346 L 337.227 197.346 L 337.227 197.346 Q 336.965 197.498 336.965 197.869 L 336.965 197.869 L 336.965 208.176 L 336.965 208.176 Q 337.183 210.159 338.686 211.27 L 338.686 211.27 L 338.686 211.27 Q 340.19 212.381 341.977 212.381 L 341.977 212.381 L 341.977 212.381 Q 345.115 212.381 346.825 209.897 L 346.825 209.897 L 346.825 209.897 Q 348.536 207.413 348.536 204.232 L 348.536 204.232 L 348.536 204.232 Q 348.536 201.05 346.792 198.501 L 346.792 198.501 L 346.792 198.501 Q 345.049 195.951 341.585 195.951 Z  M 137.933 213.493 L 124.532 213.493 L 124.532 213.493 Q 124.357 213.493 124.357 213.057 L 124.357 213.057 L 124.357 212.795 L 124.357 212.795 Q 124.357 212.621 124.532 212.621 L 124.532 212.621 L 124.532 212.621 Q 124.662 212.621 124.946 212.577 L 124.946 212.577 L 124.946 212.577 Q 125.229 212.534 125.534 212.49 L 125.534 212.49 L 125.534 212.49 Q 125.839 212.447 126.1 212.392 L 126.1 212.392 L 126.1 212.392 Q 126.362 212.338 126.471 212.316 L 126.471 212.316 L 126.471 212.316 Q 128.693 211.815 128.693 209.788 L 128.693 209.788 L 128.693 186.778 L 128.693 186.778 Q 128.693 184.904 127.19 184.119 L 127.19 184.119 L 127.19 184.119 Q 126.297 183.64 125.272 183.64 L 125.272 183.64 L 124.444 183.64 L 124.444 183.64 Q 124.27 183.64 124.27 183.466 L 124.27 183.466 L 124.27 182.943 L 124.27 182.943 Q 124.27 182.768 124.532 182.768 L 124.532 182.768 L 136.494 182.441 L 138.695 182.441 L 138.695 182.441 Q 142.552 182.703 145.156 185.241 L 145.156 185.241 L 145.156 185.241 Q 147.76 187.78 147.76 191.495 L 147.76 191.495 L 147.76 191.495 Q 147.76 195.21 144.666 197.281 L 144.666 197.281 L 144.666 197.281 Q 143.707 197.912 142.596 198.414 L 142.596 198.414 L 149.198 209.2 L 149.198 209.2 Q 150.92 212.033 153.818 213.187 L 153.818 213.187 L 153.818 213.187 Q 154.057 213.253 154.057 213.493 L 154.057 213.493 L 154.057 213.493 Q 154.057 214.037 153.338 214.037 L 153.338 214.037 L 153.338 214.037 Q 148.435 214.037 145.537 210.311 L 145.537 210.311 L 145.537 210.311 Q 144.905 209.483 144.274 208.459 L 144.274 208.459 L 138.63 199.612 L 133.444 199.372 L 133.269 199.372 L 133.269 199.372 Q 132.943 199.372 132.943 199.678 L 132.943 199.678 L 132.943 209.723 L 132.943 209.723 Q 132.943 210.921 133.618 211.51 L 133.618 211.51 L 133.618 211.51 Q 134.294 212.098 135.95 212.316 L 135.95 212.316 L 135.95 212.316 Q 136.385 212.381 137.017 212.501 L 137.017 212.501 L 137.017 212.501 Q 137.649 212.621 137.878 212.621 L 137.878 212.621 L 137.878 212.621 Q 138.107 212.621 138.107 212.795 L 138.107 212.795 L 138.107 213.318 L 138.107 213.318 Q 138.107 213.493 137.933 213.493 L 137.933 213.493 Z  M 134.708 183.585 L 134.708 183.585 L 134.708 183.585 Q 134.446 183.596 134.152 183.607 L 134.152 183.607 L 134.152 183.607 Q 133.858 183.618 133.4 183.629 L 133.4 183.629 L 133.4 183.629 Q 132.943 183.64 132.943 183.988 L 132.943 183.988 L 132.943 197.193 L 132.986 197.847 L 132.986 197.847 Q 133.052 198.305 133.4 198.327 L 133.4 198.327 L 135.623 198.457 L 135.623 198.457 Q 141.746 198.457 143.01 194.099 L 143.01 194.099 L 143.01 194.099 Q 143.424 192.726 143.424 190.961 L 143.424 190.961 L 143.424 190.961 Q 143.424 187.519 141.277 185.536 L 141.277 185.536 L 141.277 185.536 Q 139.131 183.553 135.797 183.553 L 135.797 183.553 L 135.797 183.553 Q 135.492 183.553 135.231 183.564 L 135.231 183.564 L 135.231 183.564 Q 134.969 183.574 134.708 183.585 Z  M 169.311 209.897 L 169.311 209.897 Q 169.311 210.464 169.844 210.801 L 169.844 210.801 L 169.844 210.801 Q 170.378 211.139 171.076 211.139 L 171.076 211.139 L 171.076 211.139 Q 171.773 211.139 172.241 210.78 L 172.241 210.78 L 172.241 210.78 Q 172.71 210.42 172.884 210.42 L 172.884 210.42 L 172.884 210.42 Q 173.058 210.42 173.058 210.889 L 173.058 210.889 L 173.058 210.889 Q 173.058 211.357 172.623 211.684 L 172.623 211.684 L 172.623 211.684 Q 169.354 214.081 168.199 214.081 L 168.199 214.081 L 168.199 214.081 Q 166.805 214.081 165.933 211.183 L 165.933 211.183 L 165.933 211.183 Q 165.868 210.965 165.824 210.987 L 165.824 210.987 L 165.824 210.987 Q 163.122 213.013 162.425 213.427 L 162.425 213.427 L 162.425 213.427 Q 160.638 214.451 158.84 213.754 L 158.84 213.754 L 158.84 213.754 Q 157.043 213.057 156.236 211.444 L 156.236 211.444 L 156.236 211.444 Q 155.844 210.616 155.844 209.679 L 155.844 209.679 L 155.844 209.679 Q 155.844 207.827 157.217 206.738 L 157.217 206.738 L 157.217 206.738 Q 158.59 205.648 162.447 204.646 L 162.447 204.646 L 162.447 204.646 Q 163.754 204.297 164.778 203.752 L 164.778 203.752 L 164.778 203.752 Q 165.802 203.208 165.857 203.055 L 165.857 203.055 L 165.857 203.055 Q 165.911 202.902 165.911 202.772 L 165.911 202.772 L 165.911 198.588 L 165.911 198.588 Q 165.911 196.126 163.994 195.123 L 163.994 195.123 L 163.994 195.123 Q 163.362 194.796 162.479 194.796 L 162.479 194.796 L 162.479 194.796 Q 161.597 194.796 160.692 195.494 L 160.692 195.494 L 160.692 195.494 Q 159.788 196.191 159.788 197.477 L 159.788 197.477 L 159.897 198.327 L 159.897 198.327 Q 159.766 198.588 158.328 199.198 L 158.328 199.198 L 158.328 199.198 Q 156.89 199.808 156.672 199.852 L 156.672 199.852 L 156.672 199.852 Q 156.324 199.852 156.324 199.013 L 156.324 199.013 L 156.324 199.013 Q 156.324 198.174 156.825 197.15 L 156.825 197.15 L 156.825 197.15 Q 157.326 196.126 158.241 195.276 L 158.241 195.276 L 158.241 195.276 Q 160.377 193.293 163.122 193.293 L 163.122 193.293 L 163.122 193.293 Q 165.868 193.293 167.589 194.807 L 167.589 194.807 L 167.589 194.807 Q 169.311 196.322 169.311 198.414 L 169.311 198.414 L 169.311 209.897 Z  M 159.265 209.265 L 159.265 209.265 L 159.265 209.265 Q 159.265 210.311 160.071 211.085 L 160.071 211.085 L 160.071 211.085 Q 160.878 211.858 161.913 211.858 L 161.913 211.858 L 161.913 211.858 Q 162.948 211.858 164.43 210.976 L 164.43 210.976 L 164.43 210.976 Q 165.911 210.093 165.911 209.156 L 165.911 209.156 L 165.911 204.733 L 165.911 204.733 Q 165.911 204.493 165.802 204.493 L 165.802 204.493 L 165.802 204.493 Q 165.693 204.493 165.65 204.515 L 165.65 204.515 L 160.594 206.868 L 160.594 206.868 Q 159.81 207.435 159.538 207.827 L 159.538 207.827 L 159.538 207.827 Q 159.265 208.219 159.265 209.265 Z  M 191.537 211.205 L 191.537 211.205 L 191.537 211.205 Q 188.53 214.081 184.782 214.081 L 184.782 214.081 L 184.782 214.081 Q 183.431 214.081 181.099 213.58 L 181.099 213.58 L 181.099 213.58 Q 180.729 213.58 180.696 213.841 L 180.696 213.841 L 180.696 213.841 Q 180.663 214.103 180.642 214.386 L 180.642 214.386 L 180.642 223.69 L 180.642 223.69 Q 180.642 225.325 182.537 225.869 L 182.537 225.869 L 182.537 225.869 Q 183.365 226.087 184.084 226.185 L 184.084 226.185 L 184.084 226.185 Q 184.803 226.283 185.01 226.371 L 185.01 226.371 L 185.01 226.371 Q 185.217 226.458 185.217 226.708 L 185.217 226.708 L 185.217 226.708 Q 185.217 226.959 185 227.003 L 185 227.003 L 174.083 227.003 L 174.083 227.003 Q 173.865 226.959 173.865 226.697 L 173.865 226.697 L 173.865 226.697 Q 173.865 226.305 174.889 226.174 L 174.889 226.174 L 174.889 226.174 Q 177.242 225.826 177.242 223.69 L 177.242 223.69 L 177.242 197.564 L 177.242 197.564 Q 177.242 196.649 176.24 196.3 L 176.24 196.3 L 176.24 196.3 Q 175.804 196.147 175.303 196.049 L 175.303 196.049 L 175.303 196.049 Q 174.802 195.951 174.508 195.864 L 174.508 195.864 L 174.508 195.864 Q 174.213 195.777 174.137 195.701 L 174.137 195.701 L 174.137 195.701 Q 174.061 195.625 174.061 195.374 L 174.061 195.374 L 174.061 195.374 Q 174.061 195.123 174.388 194.949 L 174.388 194.949 L 179.944 192.291 L 179.944 192.291 Q 180.119 192.203 180.293 192.203 L 180.293 192.203 L 180.293 192.203 Q 180.642 192.203 180.642 192.726 L 180.642 192.726 L 180.642 195.494 L 180.642 195.494 Q 180.642 195.733 180.892 195.733 L 180.892 195.733 L 180.892 195.733 Q 181.143 195.733 182.101 195.102 L 182.101 195.102 L 182.101 195.102 Q 184.869 193.315 187.854 193.315 L 187.854 193.315 L 187.854 193.315 Q 189.946 193.315 191.689 195.014 L 191.689 195.014 L 191.689 195.014 Q 193.977 197.237 194.74 201.203 L 194.74 201.203 L 194.74 201.203 Q 194.958 202.336 194.958 203.611 L 194.958 203.611 L 194.958 203.611 Q 194.958 204.885 194.544 206.302 L 194.544 206.302 L 194.544 206.302 Q 193.716 209.113 191.537 211.205 Z  M 185.305 195.581 L 185.305 195.581 L 185.305 195.581 Q 182.341 195.581 180.642 197.281 L 180.642 197.281 L 180.642 209.527 L 180.642 209.527 Q 180.642 210.616 181.012 210.943 L 181.012 210.943 L 181.012 210.943 Q 181.971 211.771 183.954 212.229 L 183.954 212.229 L 183.954 212.229 Q 187.876 213.122 190.055 210.355 L 190.055 210.355 L 190.055 210.355 Q 191.602 208.372 191.602 205.561 L 191.602 205.561 L 191.602 205.561 Q 191.602 200.092 189.14 197.368 L 189.14 197.368 L 189.14 197.368 Q 187.658 195.712 185.305 195.581 Z  M 208.598 213.493 L 198.88 213.493 L 198.88 213.493 Q 198.662 213.449 198.662 213.187 L 198.662 213.187 L 198.662 213.187 Q 198.662 212.795 199.686 212.665 L 199.686 212.665 L 199.686 212.665 Q 202.04 212.316 202.04 210.18 L 202.04 210.18 L 202.04 198.653 L 202.04 198.653 Q 202.04 197.738 201.037 197.39 L 201.037 197.39 L 201.037 197.39 Q 200.601 197.237 200.1 197.139 L 200.1 197.139 L 200.1 197.139 Q 199.599 197.041 199.305 196.954 L 199.305 196.954 L 199.305 196.954 Q 199.011 196.867 198.934 196.79 L 198.934 196.79 L 198.934 196.79 Q 198.858 196.714 198.858 196.463 L 198.858 196.463 L 198.858 196.463 Q 198.858 196.213 199.185 196.039 L 199.185 196.039 L 204.742 193.424 L 204.742 193.424 Q 205.003 193.293 205.068 193.293 L 205.068 193.293 L 205.068 193.293 Q 205.439 193.293 205.439 193.816 L 205.439 193.816 L 205.439 210.18 L 205.439 210.18 Q 205.439 212.316 207.792 212.665 L 207.792 212.665 L 207.792 212.665 Q 208.816 212.795 208.816 213.122 L 208.816 213.122 L 208.816 213.122 Q 208.816 213.449 208.598 213.493 L 208.598 213.493 Z  M 203.423 187.17 L 203.423 187.17 L 203.423 187.17 Q 202.519 187.17 201.833 186.603 L 201.833 186.603 L 201.833 186.603 Q 201.146 186.037 201.146 185.024 L 201.146 185.024 L 201.146 185.024 Q 201.146 184.01 201.8 183.422 L 201.8 183.422 L 201.8 183.422 Q 202.454 182.834 203.358 182.834 L 203.358 182.834 L 203.358 182.834 Q 204.262 182.834 204.883 183.531 L 204.883 183.531 L 204.883 183.531 Q 205.504 184.228 205.504 185.034 L 205.504 185.034 L 205.504 185.034 Q 205.504 185.841 204.916 186.505 L 204.916 186.505 L 204.916 186.505 Q 204.328 187.17 203.423 187.17 Z  M 224.876 194.197 L 224.876 194.197 L 224.876 194.197 Q 225.835 194.535 226.052 194.535 L 226.052 194.535 L 226.052 194.535 Q 226.27 194.535 226.325 194.524 L 226.325 194.524 L 226.325 194.524 Q 226.379 194.513 226.466 194.252 L 226.466 194.252 L 226.466 183.008 L 226.466 183.008 Q 226.466 182.093 225.464 181.744 L 225.464 181.744 L 225.464 181.744 Q 225.028 181.592 224.527 181.494 L 224.527 181.494 L 224.527 181.494 Q 224.026 181.395 223.732 181.308 L 223.732 181.308 L 223.732 181.308 Q 223.438 181.221 223.361 181.145 L 223.361 181.145 L 223.361 181.145 Q 223.285 181.069 223.285 180.818 L 223.285 180.818 L 223.285 180.818 Q 223.285 180.567 223.612 180.393 L 223.612 180.393 L 229.168 177.778 L 229.168 177.778 Q 229.43 177.648 229.495 177.648 L 229.495 177.648 L 229.495 177.648 Q 229.866 177.648 229.866 178.17 L 229.866 178.17 L 229.866 209.2 L 229.866 209.2 Q 229.975 210.159 230.411 210.573 L 230.411 210.573 L 230.411 210.573 Q 230.846 210.987 231.827 210.987 L 231.827 210.987 L 233.091 210.9 L 233.091 210.9 Q 233.221 210.9 233.221 211.15 L 233.221 211.15 L 233.221 211.15 Q 233.221 211.401 232.895 211.553 L 232.895 211.553 L 227.098 213.95 L 227.098 213.95 Q 226.837 214.081 226.652 214.081 L 226.652 214.081 L 226.652 214.081 Q 226.466 214.081 226.466 213.536 L 226.466 213.536 L 226.466 211.553 L 226.466 211.553 Q 226.466 211.335 226.358 211.335 L 226.358 211.335 L 226.358 211.335 Q 226.205 211.335 224.549 212.316 L 224.549 212.316 L 224.549 212.316 Q 219.472 215.323 215.985 213.209 L 215.985 213.209 L 215.985 213.209 Q 213.196 211.51 212.216 207.827 L 212.216 207.827 L 212.216 207.827 Q 211.758 206.106 211.758 204.177 L 211.758 204.177 L 211.758 204.177 Q 211.758 202.249 212.553 200.342 L 212.553 200.342 L 212.553 200.342 Q 213.349 198.435 214.743 196.997 L 214.743 196.997 L 214.743 196.997 Q 217.816 193.859 222.152 193.859 L 222.152 193.859 L 222.152 193.859 Q 223.917 193.859 224.876 194.197 Z  M 215.048 203.545 L 215.048 203.545 L 215.048 203.545 Q 215.048 206.847 216.879 209.32 L 216.879 209.32 L 216.879 209.32 Q 218.709 211.793 221.978 211.793 L 221.978 211.793 L 221.978 211.793 Q 223.416 211.793 224.941 211.085 L 224.941 211.085 L 224.941 211.085 Q 226.466 210.377 226.466 210.006 L 226.466 210.006 L 226.466 198.762 L 226.466 198.762 Q 226.466 198.348 225.9 197.782 L 225.9 197.782 L 225.9 197.782 Q 224.157 195.385 221.27 195.385 L 221.27 195.385 L 221.27 195.385 Q 218.382 195.385 216.715 197.814 L 216.715 197.814 L 216.715 197.814 Q 215.048 200.244 215.048 203.545 Z  M 245.751 196.583 L 245.751 198.588 L 245.751 198.588 Q 245.751 199.067 245.391 199.067 L 245.391 199.067 L 245.391 199.067 Q 245.032 199.067 244.836 198.544 L 244.836 198.544 L 244.836 198.544 Q 244.313 197.106 243.278 195.995 L 243.278 195.995 L 243.278 195.995 Q 242.243 194.884 240.717 194.884 L 240.717 194.884 L 240.717 194.884 Q 238.713 194.884 238.015 196.888 L 238.015 196.888 L 238.015 196.888 Q 237.797 197.564 237.797 198.283 L 237.797 198.283 L 237.797 198.283 Q 237.797 199.002 238.713 199.885 L 238.713 199.885 L 238.713 199.885 Q 239.628 200.767 241.72 201.987 L 241.72 201.987 L 241.72 201.987 Q 243.812 203.208 244.77 204.057 L 244.77 204.057 L 244.77 204.057 Q 246.949 205.997 246.949 208.546 L 246.949 208.546 L 246.949 208.546 Q 246.949 211.096 245.075 212.588 L 245.075 212.588 L 245.075 212.588 Q 243.201 214.081 240.717 214.081 L 240.717 214.081 L 240.717 214.081 Q 239.388 214.081 238.31 213.721 L 238.31 213.721 L 238.31 213.721 Q 237.231 213.362 237.067 213.362 L 237.067 213.362 L 237.067 213.362 Q 236.904 213.362 236.544 213.721 L 236.544 213.721 L 236.544 213.721 Q 236.185 214.081 235.967 214.081 L 235.967 214.081 L 235.597 214.081 L 235.597 214.081 Q 235.466 214.081 235.27 211.728 L 235.27 211.728 L 235.27 211.728 Q 235.074 209.374 235.074 208.938 L 235.074 208.938 L 235.074 208.938 Q 235.074 208.503 235.15 208.459 L 235.15 208.459 L 235.15 208.459 Q 235.226 208.415 235.401 208.415 L 235.401 208.415 L 235.401 208.415 Q 235.575 208.415 235.695 208.524 L 235.695 208.524 L 235.695 208.524 Q 235.815 208.633 235.902 208.797 L 235.902 208.797 L 235.902 208.797 Q 235.989 208.96 236.043 209.134 L 236.043 209.134 L 236.043 209.134 Q 236.098 209.309 236.316 209.788 L 236.316 209.788 L 236.316 209.788 Q 237.797 212.948 240.892 212.948 L 240.892 212.948 L 240.892 212.948 Q 242.264 212.948 243.092 211.935 L 243.092 211.935 L 243.092 211.935 Q 243.921 210.921 243.921 209.679 L 243.921 209.679 L 243.921 209.679 Q 243.921 208.437 243.267 207.587 L 243.267 207.587 L 243.267 207.587 Q 242.613 206.738 241.643 206.04 L 241.643 206.04 L 241.643 206.04 Q 240.674 205.343 239.541 204.689 L 239.541 204.689 L 239.541 204.689 Q 235.139 202.118 235.139 199.002 L 235.139 199.002 L 235.139 199.002 Q 235.139 196.67 237.144 194.982 L 237.144 194.982 L 237.144 194.982 Q 239.148 193.293 241.262 193.293 L 241.262 193.293 L 241.262 193.293 Q 243.376 193.293 244.389 193.751 L 244.389 193.751 L 244.389 193.751 Q 245.402 194.208 245.577 194.524 L 245.577 194.524 L 245.577 194.524 Q 245.751 194.84 245.751 196.583 L 245.751 196.583 Z  M 30.027 206.04 L 27.02 212.665 L 27.02 212.665 Q 26.911 212.839 26.486 212.741 L 26.486 212.741 L 26.486 212.741 Q 26.061 212.643 25.495 212.643 L 25.495 212.643 L 25.495 212.643 Q 24.928 212.643 23.893 212.872 L 23.893 212.872 L 23.893 212.872 Q 22.858 213.1 20.635 213.591 L 20.635 213.591 L 20.635 213.591 Q 18.413 214.081 16.582 214.081 L 16.582 214.081 L 16.582 214.081 Q 12.442 214.081 8.553 212.131 L 8.553 212.131 L 8.553 212.131 Q 4.663 210.18 2.332 206.596 L 2.332 206.596 L 2.332 206.596 Q 0 203.011 0 198.283 L 0 198.283 L 0 198.283 Q 0 193.554 2.332 189.719 L 2.332 189.719 L 2.332 189.719 Q 5.731 184.097 12.573 182.398 L 12.573 182.398 L 12.573 182.398 Q 14.752 181.853 16.931 181.853 L 16.931 181.853 L 16.931 181.853 Q 19.916 181.853 24.013 182.855 L 24.013 182.855 L 24.013 182.855 Q 25.255 183.16 26.116 183.487 L 26.116 183.487 L 26.116 183.487 Q 26.976 183.814 27.172 183.814 L 27.172 183.814 L 27.826 183.64 L 28.502 183.64 L 28.502 183.64 Q 28.763 183.64 28.763 184.01 L 28.763 184.01 L 28.763 190.787 L 28.763 190.787 Q 28.763 191.005 28.371 191.005 L 28.371 191.005 L 28.371 191.005 Q 27.979 191.005 27.913 190.907 L 27.913 190.907 L 27.913 190.907 Q 27.848 190.809 27.783 190.667 L 27.783 190.667 L 27.783 190.667 Q 27.717 190.526 27.641 190.373 L 27.641 190.373 L 27.641 190.373 Q 27.565 190.221 27.488 190.09 L 27.488 190.09 L 27.488 190.09 Q 27.412 189.959 27.39 189.894 L 27.39 189.894 L 27.39 189.894 Q 24.122 183.335 17.476 183.335 L 17.476 183.335 L 17.476 183.335 Q 11.483 183.335 8.106 187.148 L 8.106 187.148 L 8.106 187.148 Q 4.728 190.961 4.728 197.248 L 4.728 197.248 L 4.728 197.248 Q 4.728 203.534 8.444 208.045 L 8.444 208.045 L 8.444 208.045 Q 12.159 212.556 18.544 212.556 L 18.544 212.556 L 18.544 212.556 Q 22.03 212.556 24.895 210.485 L 24.895 210.485 L 24.895 210.485 Q 27.761 208.415 29.395 205.408 L 29.395 205.408 L 29.395 205.408 Q 29.439 205.278 29.657 205.278 L 29.657 205.278 L 29.94 205.278 L 29.94 205.278 Q 30.158 205.278 30.158 205.539 L 30.158 205.539 L 30.158 205.539 Q 30.158 205.801 30.027 206.04 L 30.027 206.04 Z  M 49.508 202.009 L 36.869 202.009 L 36.869 202.009 Q 36.499 202.009 36.499 203.6 L 36.499 203.6 L 36.499 203.6 Q 36.499 206.977 38.503 209.265 L 38.503 209.265 L 38.503 209.265 Q 40.508 211.553 43.483 211.553 L 43.483 211.553 L 43.483 211.553 Q 46.457 211.553 49.202 208.982 L 49.202 208.982 L 49.202 208.982 Q 49.246 208.938 49.311 208.938 L 49.311 208.938 L 49.42 208.938 L 49.42 208.938 Q 49.551 208.938 49.671 209.145 L 49.671 209.145 L 49.671 209.145 Q 49.791 209.352 49.9 209.418 L 49.9 209.418 L 49.9 209.418 Q 47.372 212.49 43.951 213.667 L 43.951 213.667 L 43.951 213.667 Q 42.774 214.081 41.293 214.081 L 41.293 214.081 L 41.293 214.081 Q 39.811 214.081 38.286 213.264 L 38.286 213.264 L 38.286 213.264 Q 36.76 212.447 35.671 211.117 L 35.671 211.117 L 35.671 211.117 Q 33.361 208.35 33.361 204.221 L 33.361 204.221 L 33.361 204.221 Q 33.361 200.092 35.878 196.692 L 35.878 196.692 L 35.878 196.692 Q 38.394 193.293 42.796 193.293 L 42.796 193.293 L 42.796 193.293 Q 45.956 193.293 47.96 196.115 L 47.96 196.115 L 47.96 196.115 Q 49.965 198.937 49.965 201.072 L 49.965 201.072 L 49.965 201.072 Q 49.965 202.009 49.508 202.009 L 49.508 202.009 Z  M 37.109 199.656 L 37.109 199.917 L 37.109 199.917 Q 37.109 200.331 37.501 200.331 L 37.501 200.331 L 45.716 200.331 L 45.716 200.331 Q 46.283 200.331 46.283 199.656 L 46.283 199.656 L 46.283 199.656 Q 46.283 198.087 44.877 196.442 L 44.877 196.442 L 44.877 196.442 Q 43.472 194.796 41.794 194.796 L 41.794 194.796 L 41.794 194.796 Q 40.16 194.796 38.819 196.278 L 38.819 196.278 L 38.819 196.278 Q 37.479 197.76 37.109 199.656 L 37.109 199.656 Z  M 67.071 194.197 L 67.071 194.197 L 67.071 194.197 Q 68.029 194.535 68.247 194.535 L 68.247 194.535 L 68.247 194.535 Q 68.465 194.535 68.52 194.524 L 68.52 194.524 L 68.52 194.524 Q 68.574 194.513 68.661 194.252 L 68.661 194.252 L 68.661 183.008 L 68.661 183.008 Q 68.661 182.093 67.659 181.744 L 67.659 181.744 L 67.659 181.744 Q 67.223 181.592 66.722 181.494 L 66.722 181.494 L 66.722 181.494 Q 66.221 181.395 65.927 181.308 L 65.927 181.308 L 65.927 181.308 Q 65.632 181.221 65.556 181.145 L 65.556 181.145 L 65.556 181.145 Q 65.48 181.069 65.48 180.818 L 65.48 180.818 L 65.48 180.818 Q 65.48 180.567 65.807 180.393 L 65.807 180.393 L 71.363 177.778 L 71.363 177.778 Q 71.625 177.648 71.69 177.648 L 71.69 177.648 L 71.69 177.648 Q 72.06 177.648 72.06 178.17 L 72.06 178.17 L 72.06 209.2 L 72.06 209.2 Q 72.169 210.159 72.605 210.573 L 72.605 210.573 L 72.605 210.573 Q 73.041 210.987 74.022 210.987 L 74.022 210.987 L 75.285 210.9 L 75.285 210.9 Q 75.416 210.9 75.416 211.15 L 75.416 211.15 L 75.416 211.15 Q 75.416 211.401 75.089 211.553 L 75.089 211.553 L 69.293 213.95 L 69.293 213.95 Q 69.032 214.081 68.846 214.081 L 68.846 214.081 L 68.846 214.081 Q 68.661 214.081 68.661 213.536 L 68.661 213.536 L 68.661 211.553 L 68.661 211.553 Q 68.661 211.335 68.552 211.335 L 68.552 211.335 L 68.552 211.335 Q 68.4 211.335 66.744 212.316 L 66.744 212.316 L 66.744 212.316 Q 61.667 215.323 58.18 213.209 L 58.18 213.209 L 58.18 213.209 Q 55.391 211.51 54.41 207.827 L 54.41 207.827 L 54.41 207.827 Q 53.953 206.106 53.953 204.177 L 53.953 204.177 L 53.953 204.177 Q 53.953 202.249 54.748 200.342 L 54.748 200.342 L 54.748 200.342 Q 55.543 198.435 56.938 196.997 L 56.938 196.997 L 56.938 196.997 Q 60.01 193.859 64.347 193.859 L 64.347 193.859 L 64.347 193.859 Q 66.112 193.859 67.071 194.197 Z  M 57.243 203.545 L 57.243 203.545 L 57.243 203.545 Q 57.243 206.847 59.073 209.32 L 59.073 209.32 L 59.073 209.32 Q 60.904 211.793 64.172 211.793 L 64.172 211.793 L 64.172 211.793 Q 65.611 211.793 67.136 211.085 L 67.136 211.085 L 67.136 211.085 Q 68.661 210.377 68.661 210.006 L 68.661 210.006 L 68.661 198.762 L 68.661 198.762 Q 68.661 198.348 68.095 197.782 L 68.095 197.782 L 68.095 197.782 Q 66.351 195.385 63.464 195.385 L 63.464 195.385 L 63.464 195.385 Q 60.577 195.385 58.91 197.814 L 58.91 197.814 L 58.91 197.814 Q 57.243 200.244 57.243 203.545 Z  M 90.844 209.897 L 90.844 209.897 Q 90.844 210.464 91.378 210.801 L 91.378 210.801 L 91.378 210.801 Q 91.911 211.139 92.609 211.139 L 92.609 211.139 L 92.609 211.139 Q 93.306 211.139 93.775 210.78 L 93.775 210.78 L 93.775 210.78 Q 94.243 210.42 94.417 210.42 L 94.417 210.42 L 94.417 210.42 Q 94.592 210.42 94.592 210.889 L 94.592 210.889 L 94.592 210.889 Q 94.592 211.357 94.156 211.684 L 94.156 211.684 L 94.156 211.684 Q 90.887 214.081 89.732 214.081 L 89.732 214.081 L 89.732 214.081 Q 88.338 214.081 87.466 211.183 L 87.466 211.183 L 87.466 211.183 Q 87.401 210.965 87.357 210.987 L 87.357 210.987 L 87.357 210.987 Q 84.655 213.013 83.958 213.427 L 83.958 213.427 L 83.958 213.427 Q 82.171 214.451 80.373 213.754 L 80.373 213.754 L 80.373 213.754 Q 78.576 213.057 77.77 211.444 L 77.77 211.444 L 77.77 211.444 Q 77.377 210.616 77.377 209.679 L 77.377 209.679 L 77.377 209.679 Q 77.377 207.827 78.75 206.738 L 78.75 206.738 L 78.75 206.738 Q 80.123 205.648 83.98 204.646 L 83.98 204.646 L 83.98 204.646 Q 85.287 204.297 86.311 203.752 L 86.311 203.752 L 86.311 203.752 Q 87.335 203.208 87.39 203.055 L 87.39 203.055 L 87.39 203.055 Q 87.444 202.902 87.444 202.772 L 87.444 202.772 L 87.444 198.588 L 87.444 198.588 Q 87.444 196.126 85.527 195.123 L 85.527 195.123 L 85.527 195.123 Q 84.895 194.796 84.012 194.796 L 84.012 194.796 L 84.012 194.796 Q 83.13 194.796 82.226 195.494 L 82.226 195.494 L 82.226 195.494 Q 81.321 196.191 81.321 197.477 L 81.321 197.477 L 81.43 198.327 L 81.43 198.327 Q 81.3 198.588 79.861 199.198 L 79.861 199.198 L 79.861 199.198 Q 78.423 199.808 78.205 199.852 L 78.205 199.852 L 78.205 199.852 Q 77.857 199.852 77.857 199.013 L 77.857 199.013 L 77.857 199.013 Q 77.857 198.174 78.358 197.15 L 78.358 197.15 L 78.358 197.15 Q 78.859 196.126 79.774 195.276 L 79.774 195.276 L 79.774 195.276 Q 81.91 193.293 84.655 193.293 L 84.655 193.293 L 84.655 193.293 Q 87.401 193.293 89.122 194.807 L 89.122 194.807 L 89.122 194.807 Q 90.844 196.322 90.844 198.414 L 90.844 198.414 L 90.844 209.897 Z  M 80.798 209.265 L 80.798 209.265 L 80.798 209.265 Q 80.798 210.311 81.605 211.085 L 81.605 211.085 L 81.605 211.085 Q 82.411 211.858 83.446 211.858 L 83.446 211.858 L 83.446 211.858 Q 84.481 211.858 85.963 210.976 L 85.963 210.976 L 85.963 210.976 Q 87.444 210.093 87.444 209.156 L 87.444 209.156 L 87.444 204.733 L 87.444 204.733 Q 87.444 204.493 87.335 204.493 L 87.335 204.493 L 87.335 204.493 Q 87.227 204.493 87.183 204.515 L 87.183 204.515 L 82.128 206.868 L 82.128 206.868 Q 81.343 207.435 81.071 207.827 L 81.071 207.827 L 81.071 207.827 Q 80.798 208.219 80.798 209.265 Z  M 109.91 197.869 L 109.91 197.869 L 109.91 197.869 Q 109.649 197.825 109.148 197.586 L 109.148 197.586 L 109.148 197.586 Q 107.339 196.758 106.315 196.758 L 106.315 196.758 L 106.315 196.758 Q 105.291 196.758 104.168 198.032 L 104.168 198.032 L 104.168 198.032 Q 103.046 199.307 103.046 200.331 L 103.046 200.331 L 103.046 210.18 L 103.046 210.18 Q 103.046 211.815 104.942 212.359 L 104.942 212.359 L 104.942 212.359 Q 105.77 212.577 106.489 212.675 L 106.489 212.675 L 106.489 212.675 Q 107.208 212.773 107.415 212.861 L 107.415 212.861 L 107.415 212.861 Q 107.622 212.948 107.622 213.198 L 107.622 213.198 L 107.622 213.198 Q 107.622 213.449 107.404 213.493 L 107.404 213.493 L 96.487 213.493 L 96.487 213.493 Q 96.27 213.449 96.27 213.187 L 96.27 213.187 L 96.27 213.187 Q 96.27 212.795 97.294 212.665 L 97.294 212.665 L 97.294 212.665 Q 99.647 212.316 99.647 210.18 L 99.647 210.18 L 99.647 198.653 L 99.647 198.653 Q 99.647 197.738 98.645 197.39 L 98.645 197.39 L 98.645 197.39 Q 98.209 197.237 97.708 197.139 L 97.708 197.139 L 97.708 197.139 Q 97.206 197.041 96.912 196.954 L 96.912 196.954 L 96.912 196.954 Q 96.618 196.867 96.542 196.79 L 96.542 196.79 L 96.542 196.79 Q 96.466 196.714 96.466 196.463 L 96.466 196.463 L 96.466 196.463 Q 96.466 196.213 96.792 196.039 L 96.792 196.039 L 102.349 193.424 L 102.349 193.424 Q 102.61 193.293 102.676 193.293 L 102.676 193.293 L 102.676 193.293 Q 103.046 193.293 103.046 193.816 L 103.046 193.816 L 103.046 197.346 L 103.046 197.346 Q 103.046 197.607 103.177 197.607 L 103.177 197.607 L 103.177 197.607 Q 103.351 197.607 104.07 196.583 L 104.07 196.583 L 104.07 196.583 Q 106.141 193.685 107.492 193.685 L 107.492 193.685 L 107.492 193.685 Q 108.254 193.685 109.834 194.295 L 109.834 194.295 L 109.834 194.295 Q 111.414 194.905 111.414 195.319 L 111.414 195.319 L 111.414 195.319 Q 111.414 195.821 110.913 196.845 L 110.913 196.845 L 110.913 196.845 Q 110.411 197.869 109.91 197.869 Z " fill-rule="evenodd" fill="rgb(255,255,255)"/></g></svg>